<?xml version="1.0" standalone="no"?>
<!DOCTYPE svg PUBLIC "-//W3C//DTD SVG 20010904//EN"
 "http://www.w3.org/TR/2001/REC-SVG-20010904/DTD/svg10.dtd">
<svg version="1.0" xmlns="http://www.w3.org/2000/svg"
 width="200.000000pt" height="200.000000pt" viewBox="0 0 200.000000 200.000000"
 preserveAspectRatio="xMidYMid meet">

<g transform="translate(0.000000,200.000000) scale(0.100000,-0.100000)"
fill="#000000" stroke="none">
<path d="M1746 1535 c4 -8 8 -15 10 -15 2 0 4 7 4 15 0 8 -4 15 -10 15 -5 0
-7 -7 -4 -15z"/>
<path d="M496 1274 c-69 -141 -126 -258 -126 -260 0 -2 27 -4 60 -4 l59 0 84
172 84 172 36 -72 c21 -40 37 -75 37 -78 0 -2 -11 -4 -25 -4 -20 0 -30 -10
-50 -50 -14 -27 -25 -52 -25 -55 0 -3 35 -5 78 -5 l79 0 18 -40 18 -40 63 0
64 0 -76 153 c-42 83 -99 200 -127 260 l-51 107 -37 0 -38 0 -125 -256z"/>
<path d="M800 1520 c0 -5 10 -30 22 -55 l22 -45 63 0 63 0 0 -205 0 -205 55 0
55 0 0 205 0 205 64 0 64 0 4 -139 c3 -138 3 -139 34 -183 87 -119 261 -119
348 0 l31 44 3 194 3 194 -55 0 -56 0 0 -169 c0 -166 -1 -170 -25 -199 -30
-35 -69 -45 -111 -27 -59 25 -64 41 -64 227 l0 168 -260 0 c-162 0 -260 -4
-260 -10z"/>
<path d="M886 837 c-28 -21 -17 -68 21 -92 18 -11 32 -28 33 -38 0 -25 -30
-34 -45 -14 -15 20 -35 22 -35 4 0 -40 81 -53 100 -16 17 32 4 65 -35 88 -19
11 -35 27 -35 35 0 20 26 27 40 10 16 -18 30 -18 30 1 0 14 -29 35 -47 35 -5
0 -17 -6 -27 -13z"/>
<path d="M1148 839 c-11 -6 -18 -22 -18 -40 0 -23 7 -34 35 -50 41 -24 50 -69
15 -69 -11 0 -23 7 -26 15 -6 14 -34 22 -34 9 0 -24 24 -44 53 -44 40 0 57 15
57 52 0 21 -9 33 -35 50 -33 22 -45 51 -26 63 5 3 16 -2 24 -10 17 -17 37 -20
37 -6 0 12 -40 41 -55 41 -5 0 -18 -5 -27 -11z"/>
<path d="M1605 825 c-20 -19 -25 -34 -25 -72 0 -28 7 -58 16 -71 25 -36 94
-25 94 15 0 19 -20 16 -36 -4 -13 -17 -15 -17 -29 1 -15 20 -20 81 -9 110 7
17 44 22 44 6 0 -5 7 -10 15 -10 22 0 19 27 -4 40 -29 15 -39 13 -66 -15z"/>
<path d="M153 750 c-16 -71 -17 -90 -7 -90 8 0 16 11 20 25 4 18 13 25 29 25
16 0 25 -7 29 -25 4 -14 14 -25 22 -25 11 0 14 5 10 17 -4 10 -14 50 -23 90
-14 63 -19 73 -38 73 -19 0 -24 -10 -42 -90z m56 3 c1 -14 -5 -23 -14 -23 -16
0 -19 20 -8 59 6 23 7 23 14 5 4 -10 8 -29 8 -41z"/>
<path d="M290 751 c0 -54 4 -91 10 -91 6 0 10 18 10 41 0 36 2 40 23 37 18 -2
23 -10 25 -40 2 -25 8 -38 18 -38 17 0 20 75 4 85 -8 5 -7 11 0 20 6 8 10 26
8 42 -3 26 -7 28 -50 31 l-48 3 0 -90z m73 55 c3 -8 0 -22 -7 -32 -18 -24 -46
-11 -46 21 0 20 5 25 24 25 13 0 26 -6 29 -14z"/>
<path d="M430 750 c0 -72 3 -90 14 -90 10 0 16 13 18 37 4 51 24 53 39 4 8
-28 18 -41 30 -41 16 0 16 5 -7 56 l-25 56 22 34 c17 28 18 34 5 34 -8 0 -26
-19 -40 -42 l-26 -43 0 43 c0 31 -4 42 -15 42 -12 0 -15 -17 -15 -90z"/>
<path d="M583 750 c-16 -71 -17 -90 -7 -90 8 0 16 11 20 25 4 18 13 25 29 25
16 0 25 -7 29 -25 4 -14 12 -25 20 -25 10 0 9 19 -7 90 -18 79 -23 90 -42 90
-19 0 -24 -11 -42 -90z m57 8 c0 -18 -5 -28 -15 -28 -16 0 -20 35 -9 65 9 23
24 0 24 -37z"/>
<path d="M720 751 c0 -106 18 -124 22 -23 l3 67 25 -67 c18 -49 30 -68 42 -68
16 0 18 11 18 90 0 72 -3 90 -15 90 -10 0 -15 -15 -17 -57 l-3 -58 -21 55
c-12 31 -28 56 -38 58 -14 3 -16 -9 -16 -87z"/>
<path d="M1025 828 c-2 -7 -13 -48 -24 -91 -18 -71 -18 -78 -3 -75 10 2 18 13
20 26 5 32 48 30 56 -3 4 -14 13 -25 22 -25 10 0 14 6 10 18 -3 9 -12 50 -21
90 -14 59 -20 72 -36 72 -11 0 -22 -6 -24 -12z m34 -75 c1 -14 -5 -23 -14 -23
-16 0 -19 20 -8 59 6 23 7 23 14 5 4 -10 8 -29 8 -41z"/>
<path d="M1330 830 c0 -5 9 -10 20 -10 18 0 20 -7 20 -80 0 -47 4 -80 10 -80
6 0 10 33 10 80 0 73 2 80 20 80 11 0 20 5 20 10 0 6 -22 10 -50 10 -27 0 -50
-4 -50 -10z"/>
<path d="M1460 750 l0 -90 50 0 c28 0 50 5 50 10 0 6 -16 10 -35 10 -33 0 -35
2 -35 35 0 32 2 35 30 35 17 0 30 5 30 10 0 6 -13 10 -30 10 -25 0 -30 4 -30
25 0 21 5 25 30 25 17 0 30 5 30 10 0 6 -20 10 -45 10 l-45 0 0 -90z"/>
<path d="M1720 750 c0 -72 3 -90 14 -90 10 0 16 14 18 43 2 35 7 43 26 45 20
3 22 -1 22 -42 0 -34 4 -46 15 -46 12 0 15 17 15 90 0 73 -3 90 -15 90 -10 0
-15 -11 -15 -35 0 -31 -3 -35 -25 -35 -22 0 -25 4 -25 35 0 24 -5 35 -15 35
-12 0 -15 -17 -15 -90z"/>
<path d="M330 517 c0 -55 21 -87 47 -71 13 8 18 25 19 65 l1 54 -6 -55 c-4
-41 -10 -56 -23 -58 -15 -3 -18 5 -18 52 0 31 -4 56 -10 56 -5 0 -10 -19 -10
-43z"/>
<path d="M492 498 l1 -63 7 55 c4 30 7 49 8 41 1 -8 4 -12 7 -9 8 7 -5 38 -16
38 -5 0 -8 -28 -7 -62z"/>
<path d="M552 517 c-1 -29 -6 -46 -12 -42 -12 8 -13 -5 0 -25 15 -24 21 -5 17
56 -3 57 -3 57 -5 11z"/>
<path d="M653 500 c0 -36 2 -50 4 -32 2 17 2 47 0 65 -2 17 -4 3 -4 -33z"/>
<path d="M751 553 c-2 -25 23 -113 32 -113 5 0 6 8 2 18 -4 9 -13 37 -20 62
-7 25 -14 40 -14 33z"/>
<path d="M900 500 c0 -59 0 -60 28 -59 23 2 24 2 5 6 -16 3 -23 11 -23 28 0
17 7 25 23 28 l22 4 -22 2 c-16 1 -23 7 -23 20 0 12 8 21 23 24 19 4 18 4 -5
6 -28 1 -28 0 -28 -59z"/>
<path d="M1042 498 c0 -35 3 -48 5 -30 3 23 9 32 23 32 14 0 20 -9 23 -32 2
-18 4 -6 3 27 -1 58 -2 60 -28 63 l-28 3 2 -63z m48 32 c0 -13 -7 -20 -20 -20
-13 0 -20 7 -20 20 0 13 7 20 20 20 13 0 20 -7 20 -20z"/>
<path d="M1193 543 c-4 -10 2 -23 19 -37 14 -12 28 -30 31 -41 4 -18 5 -18 6
2 1 14 -9 29 -25 39 -17 11 -24 24 -21 36 6 23 -1 24 -10 1z"/>
<path d="M1220 556 c0 -2 7 -7 16 -10 8 -3 12 -2 9 4 -6 10 -25 14 -25 6z"/>
<path d="M1437 552 c6 -4 13 -30 16 -57 l3 -50 2 52 c2 40 6 53 20 56 9 3 1 5
-18 6 -19 0 -30 -3 -23 -7z"/>
<path d="M1560 555 c0 -5 5 -17 10 -25 5 -8 10 -10 10 -5 0 6 -5 17 -10 25 -5
8 -10 11 -10 5z"/>
<path d="M1610 542 c0 -6 -6 -17 -14 -25 -10 -10 -12 -23 -6 -48 l8 -34 1 33
c1 18 6 42 12 54 6 11 8 22 5 26 -3 3 -6 0 -6 -6z"/>
<path d="M801 524 c0 -11 3 -14 6 -6 3 7 2 16 -1 19 -3 4 -6 -2 -5 -13z"/>
<path d="M791 484 c0 -11 3 -14 6 -6 3 7 2 16 -1 19 -3 4 -6 -2 -5 -13z"/>
<path d="M1193 460 c2 -8 12 -16 23 -17 13 -2 15 -1 4 4 -8 3 -19 11 -23 17
-6 7 -7 6 -4 -4z"/>
</g>
</svg>
